<mxfile host="Electron" agent="Mozilla/5.0 (Windows NT 10.0; Win64; x64) AppleWebKit/537.36 (KHTML, like Gecko) draw.io/26.0.16 Chrome/132.0.6834.196 Electron/34.2.0 Safari/537.36" version="26.0.16">
  <diagram name="Page-1" id="mQslGHnj-2zkQDmir7r8">
    <mxGraphModel dx="1195" dy="697" grid="1" gridSize="10" guides="1" tooltips="1" connect="1" arrows="1" fold="1" page="1" pageScale="1" pageWidth="1700" pageHeight="1100" math="0" shadow="0">
      <root>
        <mxCell id="0" />
        <mxCell id="1" parent="0" />
        <mxCell id="oO_7tHraXSoP0F6KC2gU-4" value="" style="rounded=0;whiteSpace=wrap;html=1;fillColor=none;" parent="1" vertex="1">
          <mxGeometry x="280" y="120" width="760" height="440" as="geometry" />
        </mxCell>
        <mxCell id="DrCY6xmhCjI5dFeIECTQ-1" value="User" style="shape=umlActor;verticalLabelPosition=bottom;verticalAlign=top;html=1;outlineConnect=0;" parent="1" vertex="1">
          <mxGeometry x="310" y="140" width="30" height="60" as="geometry" />
        </mxCell>
        <mxCell id="DrCY6xmhCjI5dFeIECTQ-2" value="Questionnaire" style="rounded=0;whiteSpace=wrap;html=1;" parent="1" vertex="1">
          <mxGeometry x="640" y="160" width="120" height="60" as="geometry" />
        </mxCell>
        <mxCell id="DrCY6xmhCjI5dFeIECTQ-11" value="" style="endArrow=none;dashed=1;html=1;rounded=0;entryX=0.5;entryY=1;entryDx=0;entryDy=0;" parent="1" target="DrCY6xmhCjI5dFeIECTQ-2" edge="1">
          <mxGeometry width="50" height="50" relative="1" as="geometry">
            <mxPoint x="700" y="520" as="sourcePoint" />
            <mxPoint x="650" y="280" as="targetPoint" />
          </mxGeometry>
        </mxCell>
        <mxCell id="DrCY6xmhCjI5dFeIECTQ-17" value="" style="endArrow=classic;html=1;rounded=0;fontSize=10;" parent="1" edge="1">
          <mxGeometry width="50" height="50" relative="1" as="geometry">
            <mxPoint x="505" y="300.03" as="sourcePoint" />
            <mxPoint x="695" y="300.03" as="targetPoint" />
          </mxGeometry>
        </mxCell>
        <mxCell id="DrCY6xmhCjI5dFeIECTQ-21" value="&lt;font&gt;Mengisi Formulir&amp;nbsp;&lt;/font&gt;Kuesioner" style="text;html=1;align=center;verticalAlign=middle;whiteSpace=wrap;rounded=0;fontSize=10;" parent="1" vertex="1">
          <mxGeometry x="510" y="277.03" width="180" height="30" as="geometry" />
        </mxCell>
        <mxCell id="DrCY6xmhCjI5dFeIECTQ-7" value="" style="html=1;points=[[0,0,0,0,5],[0,1,0,0,-5],[1,0,0,0,5],[1,1,0,0,-5]];perimeter=orthogonalPerimeter;outlineConnect=0;targetShapes=umlLifeline;portConstraint=eastwest;newEdgeStyle={&quot;curved&quot;:0,&quot;rounded&quot;:0};fontSize=10;" parent="1" vertex="1">
          <mxGeometry x="695" y="280" width="10" height="160" as="geometry" />
        </mxCell>
        <mxCell id="2G28basbIs-I3qBXTgBx-2" value="" style="endArrow=none;dashed=1;html=1;rounded=0;entryX=0.5;entryY=1;entryDx=0;entryDy=0;" parent="1" edge="1">
          <mxGeometry width="50" height="50" relative="1" as="geometry">
            <mxPoint x="325" y="520" as="sourcePoint" />
            <mxPoint x="324.66999999999996" y="226" as="targetPoint" />
          </mxGeometry>
        </mxCell>
        <mxCell id="2G28basbIs-I3qBXTgBx-1" value="" style="html=1;points=[[0,0,0,0,5],[0,1,0,0,-5],[1,0,0,0,5],[1,1,0,0,-5]];perimeter=orthogonalPerimeter;outlineConnect=0;targetShapes=umlLifeline;portConstraint=eastwest;newEdgeStyle={&quot;curved&quot;:0,&quot;rounded&quot;:0};" parent="1" vertex="1">
          <mxGeometry x="320" y="240" width="10" height="240" as="geometry" />
        </mxCell>
        <mxCell id="JiykhInXLay76jzij8MM-2" value="Conditions" style="rounded=0;whiteSpace=wrap;html=1;" parent="1" vertex="1">
          <mxGeometry x="440" y="160" width="120" height="60" as="geometry" />
        </mxCell>
        <mxCell id="JiykhInXLay76jzij8MM-3" value="" style="endArrow=none;dashed=1;html=1;rounded=0;entryX=0.5;entryY=1;entryDx=0;entryDy=0;" parent="1" target="JiykhInXLay76jzij8MM-2" edge="1">
          <mxGeometry width="50" height="50" relative="1" as="geometry">
            <mxPoint x="500" y="520" as="sourcePoint" />
            <mxPoint x="450" y="280" as="targetPoint" />
          </mxGeometry>
        </mxCell>
        <mxCell id="JiykhInXLay76jzij8MM-4" value="" style="endArrow=classic;html=1;rounded=0;fontSize=10;" parent="1" target="JiykhInXLay76jzij8MM-8" edge="1">
          <mxGeometry width="50" height="50" relative="1" as="geometry">
            <mxPoint x="330" y="280" as="sourcePoint" />
            <mxPoint x="485" y="280" as="targetPoint" />
          </mxGeometry>
        </mxCell>
        <mxCell id="JiykhInXLay76jzij8MM-5" value="Sudah Memberi Ulasan,&lt;div&gt;Belum Mengisi Kuesioner,&lt;/div&gt;&lt;div&gt;Sudah Kadaluwarsa&lt;/div&gt;" style="text;html=1;align=center;verticalAlign=middle;whiteSpace=wrap;rounded=0;fontSize=10;" parent="1" vertex="1">
          <mxGeometry x="340" y="245.03" width="150" height="30" as="geometry" />
        </mxCell>
        <mxCell id="JiykhInXLay76jzij8MM-8" value="" style="html=1;points=[[0,0,0,0,5],[0,1,0,0,-5],[1,0,0,0,5],[1,1,0,0,-5]];perimeter=orthogonalPerimeter;outlineConnect=0;targetShapes=umlLifeline;portConstraint=eastwest;newEdgeStyle={&quot;curved&quot;:0,&quot;rounded&quot;:0};fontSize=10;" parent="1" vertex="1">
          <mxGeometry x="495" y="260" width="10" height="200" as="geometry" />
        </mxCell>
        <mxCell id="oO_7tHraXSoP0F6KC2gU-2" value="" style="endArrow=classic;html=1;rounded=0;dashed=1;fontSize=10;" parent="1" source="5fdhjbo4YNREX5fnMYnY-5" edge="1">
          <mxGeometry width="50" height="50" relative="1" as="geometry">
            <mxPoint x="695" y="399.99999999999994" as="sourcePoint" />
            <mxPoint x="330" y="399.99999999999994" as="targetPoint" />
          </mxGeometry>
        </mxCell>
        <mxCell id="oO_7tHraXSoP0F6KC2gU-3" value="Dialihkan Ke Halaman &quot;Home&quot;" style="text;html=1;align=center;verticalAlign=middle;whiteSpace=wrap;rounded=0;fontSize=10;" parent="1" vertex="1">
          <mxGeometry x="340" y="377" width="150" height="30" as="geometry" />
        </mxCell>
        <mxCell id="5fdhjbo4YNREX5fnMYnY-1" value="Database" style="rounded=0;whiteSpace=wrap;html=1;" parent="1" vertex="1">
          <mxGeometry x="840" y="160" width="120" height="60" as="geometry" />
        </mxCell>
        <mxCell id="5fdhjbo4YNREX5fnMYnY-2" value="" style="endArrow=none;dashed=1;html=1;rounded=0;entryX=0.5;entryY=1;entryDx=0;entryDy=0;" parent="1" target="5fdhjbo4YNREX5fnMYnY-1" edge="1">
          <mxGeometry width="50" height="50" relative="1" as="geometry">
            <mxPoint x="900" y="520" as="sourcePoint" />
            <mxPoint x="850" y="280" as="targetPoint" />
          </mxGeometry>
        </mxCell>
        <mxCell id="5fdhjbo4YNREX5fnMYnY-3" value="" style="endArrow=classic;html=1;rounded=0;entryX=1;entryY=0.5;entryDx=0;entryDy=0;edgeStyle=orthogonalEdgeStyle;fontSize=10;" parent="1" target="5fdhjbo4YNREX5fnMYnY-6" edge="1">
          <mxGeometry width="50" height="50" relative="1" as="geometry">
            <mxPoint x="905" y="339.99999999999994" as="sourcePoint" />
            <mxPoint x="960" y="349.99999999999994" as="targetPoint" />
            <Array as="points">
              <mxPoint x="930" y="339.99999999999994" />
              <mxPoint x="930" y="379.99999999999994" />
            </Array>
          </mxGeometry>
        </mxCell>
        <mxCell id="5fdhjbo4YNREX5fnMYnY-4" value="Menyimpan Data Di Database" style="text;html=1;align=left;verticalAlign=middle;whiteSpace=wrap;rounded=0;fontSize=10;" parent="1" vertex="1">
          <mxGeometry x="930" y="339.99999999999994" width="80" height="30" as="geometry" />
        </mxCell>
        <mxCell id="5fdhjbo4YNREX5fnMYnY-5" value="" style="html=1;points=[[0,0,0,0,5],[0,1,0,0,-5],[1,0,0,0,5],[1,1,0,0,-5]];perimeter=orthogonalPerimeter;outlineConnect=0;targetShapes=umlLifeline;portConstraint=eastwest;newEdgeStyle={&quot;curved&quot;:0,&quot;rounded&quot;:0};fontSize=10;" parent="1" vertex="1">
          <mxGeometry x="895" y="300" width="10" height="120" as="geometry" />
        </mxCell>
        <mxCell id="5fdhjbo4YNREX5fnMYnY-6" value="" style="rounded=0;whiteSpace=wrap;html=1;fontSize=10;" parent="1" vertex="1">
          <mxGeometry x="900" y="349.99999999999994" width="10" height="60" as="geometry" />
        </mxCell>
        <mxCell id="5fdhjbo4YNREX5fnMYnY-9" value="" style="endArrow=classic;html=1;rounded=0;fontSize=10;" parent="1" edge="1">
          <mxGeometry width="50" height="50" relative="1" as="geometry">
            <mxPoint x="705" y="320.04999999999995" as="sourcePoint" />
            <mxPoint x="895" y="320.04999999999995" as="targetPoint" />
          </mxGeometry>
        </mxCell>
        <mxCell id="5fdhjbo4YNREX5fnMYnY-10" value="Klik Tombol &quot;Submit&quot;" style="text;html=1;align=center;verticalAlign=middle;whiteSpace=wrap;rounded=0;fontSize=10;" parent="1" vertex="1">
          <mxGeometry x="710" y="297.04999999999995" width="180" height="30" as="geometry" />
        </mxCell>
      </root>
    </mxGraphModel>
  </diagram>
</mxfile>
